<?xml version="1.0" encoding="utf-8"?>
<!-- Generator: Adobe Illustrator 27.0.0, SVG Export Plug-In . SVG Version: 6.00 Build 0)  -->
<svg version="1.1" xmlns="http://www.w3.org/2000/svg" xmlns:xlink="http://www.w3.org/1999/xlink" x="0px" y="0px"
	 viewBox="0 0 422.5 139.7" style="enable-background:new 0 0 422.5 139.7;" xml:space="preserve">
<style type="text/css">
	.st0{display:none;fill:#101728;}
	.st1{fill:url(#SVGID_1_);}
	.st2{fill:#FFFFFF;}
	.st3{fill:url(#SVGID_00000000944977038042965540000015863399949615918508_);}
</style>
<g id="Background_xA0_Image_00000092441252790849741850000001372170741067048379_">
	<rect class="st0" width="422.5" height="139.7"/>
</g>
<g id="Logo_00000082347120609936612530000000381744127808778133_">
	<g id="Vector_Smart_Object_xA0_Image_00000150091349276487405800000011111360868018448829_">
		<linearGradient id="SVGID_1_" gradientUnits="userSpaceOnUse" x1="62.7038" y1="17.1662" x2="62.7038" y2="114.6609">
			<stop  offset="0" style="stop-color:#0DEFFE"/>
			<stop  offset="1" style="stop-color:#4FADFE"/>
		</linearGradient>
		<path class="st1" d="M5.5,17.2h23.6L40,36l-18.5,8.9L5.5,17.2z M24.5,51.6l12.4,19.8l17.9-9.6l9.1-4.7c4.5-2.3,9-4.6,13.2-6.8
			L62.7,75.5l-4.2-7.2l-18.3,9.4l22.4,38.9L111,32.7c0.5-0.8,8.9-15.5,8.9-15.5H96.3L49.7,39.6l-6,2.9L24.5,51.6z"/>
	</g>
	<g id="ed.jx">
		<g>
			<path class="st2" d="M147.1,107.7c-7.6,0-14.2-1.5-19.8-4.6c-5.6-3.1-9.9-7.2-13-12.5c-3.1-5.3-4.7-11.3-4.7-18.2
				c0-5.3,0.9-10.1,2.6-14.5c1.7-4.4,4.1-8.2,7.2-11.4c3.1-3.2,6.8-5.7,11-7.5c4.3-1.8,8.9-2.6,14-2.6c4.8,0,9.2,0.9,13.2,2.6
				c4,1.7,7.5,4.1,10.4,7.2c2.9,3.1,5.2,6.8,6.7,11c1.6,4.2,2.2,8.8,2.1,13.8l-0.1,5.6h-54.7l-3-11.6H160l-2.2,2.5v-2.6
				c-0.2-2.2-0.8-4.1-2-5.7c-1.2-1.7-2.7-3-4.6-3.9c-1.9-0.9-4-1.4-6.5-1.4c-3.4,0-6.2,0.7-8.6,2c-2.4,1.3-4.2,3.3-5.4,5.8
				c-1.2,2.5-1.8,5.7-1.8,9.4c0,3.8,0.8,7.1,2.4,9.9c1.6,2.8,3.9,5,7,6.5c3.1,1.5,6.7,2.3,10.9,2.3c2.9,0,5.5-0.4,7.8-1.3
				c2.3-0.9,4.8-2.3,7.4-4.4l9.7,13.7c-2.7,2.3-5.5,4.2-8.5,5.7c-3,1.5-6.1,2.6-9.2,3.3C153.3,107.4,150.2,107.7,147.1,107.7z"/>
			<path class="st2" d="M216.1,107.9c-5.9,0-11.2-1.5-15.8-4.6c-4.6-3.1-8.2-7.3-10.9-12.7c-2.7-5.4-4-11.5-4-18.4
				c0-6.9,1.3-13,4-18.4c2.7-5.4,6.3-9.6,11-12.7s10-4.7,16-4.7c3.1,0,6.1,0.5,8.9,1.4c2.8,0.9,5.4,2.2,7.8,3.9
				c2.3,1.6,4.2,3.5,5.7,5.6c1.5,2.1,2.3,4.3,2.6,6.5l-4.9,1.2V10.8h20.8v95.6h-19.3l-1.2-15.6l4.1,0.6c-0.3,2.2-1.1,4.2-2.5,6.2
				c-1.4,2-3.3,3.7-5.5,5.2c-2.2,1.5-4.8,2.7-7.7,3.6C222.3,107.4,219.3,107.9,216.1,107.9z M221.4,90.7c3.2,0,5.9-0.8,8.3-2.3
				c2.3-1.6,4.1-3.7,5.4-6.5c1.2-2.8,1.9-6,1.9-9.7c0-3.8-0.6-7.1-1.9-9.8c-1.2-2.8-3-4.9-5.4-6.5c-2.3-1.6-5.1-2.3-8.3-2.3
				c-3.2,0-5.9,0.8-8.2,2.3c-2.3,1.6-4.1,3.7-5.4,6.5c-1.3,2.8-1.9,6-1.9,9.8c0,3.7,0.6,6.9,1.9,9.7c1.3,2.8,3.1,4.9,5.4,6.5
				C215.5,89.9,218.2,90.7,221.4,90.7z"/>
			<path class="st2" d="M282,107.9c-3.5,0-6.3-1-8.2-3c-1.9-2-2.9-4.8-2.9-8.5c0-3.4,1-6.2,3.1-8.4c2.1-2.2,4.7-3.2,8-3.2
				c3.5,0,6.3,1,8.3,3c2,2,3,4.9,3,8.6c0,3.4-1,6.1-3.1,8.3C288.1,106.8,285.4,107.9,282,107.9z"/>
			<path class="st2" d="M301.6,133.6l-7.9-16c4,0,7.1-0.5,9.3-1.5c2.2-1,3.8-2.7,4.8-5.1c0.9-2.4,1.4-5.6,1.4-9.8V37.8h20.7v68.2
				c0,6.3-1.1,11.5-3.2,15.5c-2.2,4-5.3,7.1-9.6,9C312.9,132.6,307.8,133.6,301.6,133.6z"/>
			<path class="st2" d="M341.8,106.4l27.6-38.5l11.1,13.3l-14.3,25.2H341.8z M390.9,106.4l-14.6-22.1l-6.7-9.4l-27.1-37.1h24.8
				l14.1,21.1l7.4,10.1l26.7,37.5H390.9z M387.2,76.6l-11-13.2l13.6-25.6h24.4L387.2,76.6z"/>
		</g>
	</g>
	<g id="Ellipse_3_xA0_Image_00000010307773028695592280000010379818011640914583_">
		
			<linearGradient id="SVGID_00000178923875499612322570000011332152577191327630_" gradientUnits="userSpaceOnUse" x1="318.5783" y1="7.1667" x2="318.5783" y2="30.0341">
			<stop  offset="0" style="stop-color:#0DEFFE"/>
			<stop  offset="1" style="stop-color:#4FADFE"/>
		</linearGradient>
		<circle style="fill:url(#SVGID_00000178923875499612322570000011332152577191327630_);" cx="318.6" cy="17.9" r="12.8"/>
	</g>
</g>
</svg>
